<svg xmlns="http://www.w3.org/2000/svg" width="23.572" height="30.001" viewBox="0 0 23.572 30.001">
  <path id="building" d="M22.5,0a1.03,1.03,0,0,1,.753.318,1.03,1.03,0,0,1,.318.753V28.929A1.087,1.087,0,0,1,22.5,30H1.072a1.03,1.03,0,0,1-.753-.318A1.03,1.03,0,0,1,0,28.929V1.072A1.03,1.03,0,0,1,.318.318,1.03,1.03,0,0,1,1.072,0ZM8.572,4.822V5.893a.516.516,0,0,0,.536.536h1.072a.516.516,0,0,0,.536-.536V4.822a.516.516,0,0,0-.536-.536H9.108a.516.516,0,0,0-.536.536Zm0,4.286v1.072a.516.516,0,0,0,.536.536h1.072a.516.516,0,0,0,.536-.536V9.108a.516.516,0,0,0-.536-.536H9.108a.516.516,0,0,0-.536.536Zm0,4.286v1.072A.516.516,0,0,0,9.108,15h1.072a.516.516,0,0,0,.536-.536V13.393a.516.516,0,0,0-.536-.536H9.108a.516.516,0,0,0-.536.536Zm0,4.286v1.072a.516.516,0,0,0,.536.536h1.072a.516.516,0,0,0,.536-.536V17.679a.516.516,0,0,0-.536-.536H9.108a.516.516,0,0,0-.536.536ZM6.429,23.037V21.965a.516.516,0,0,0-.536-.536H4.822a.516.516,0,0,0-.536.536v1.072a.516.516,0,0,0,.536.536H5.893a.516.516,0,0,0,.536-.536Zm0-4.286V17.679a.516.516,0,0,0-.536-.536H4.822a.516.516,0,0,0-.536.536v1.072a.516.516,0,0,0,.536.536H5.893a.516.516,0,0,0,.536-.536Zm0-4.286V13.393a.516.516,0,0,0-.536-.536H4.822a.516.516,0,0,0-.536.536v1.072A.516.516,0,0,0,4.822,15H5.893a.516.516,0,0,0,.536-.536Zm0-4.286V9.108a.516.516,0,0,0-.536-.536H4.822a.516.516,0,0,0-.536.536v1.072a.516.516,0,0,0,.536.536H5.893a.516.516,0,0,0,.536-.536Zm0-4.286V4.822a.516.516,0,0,0-.536-.536H4.822a.516.516,0,0,0-.536.536V5.893a.516.516,0,0,0,.536.536H5.893a.516.516,0,0,0,.536-.536ZM15,27.322V24.108a.516.516,0,0,0-.536-.536H9.108a.516.516,0,0,0-.536.536v3.214a.516.516,0,0,0,.536.536h5.358A.516.516,0,0,0,15,27.322Zm0-8.572V17.678a.516.516,0,0,0-.536-.536H13.393a.516.516,0,0,0-.536.536V18.75a.516.516,0,0,0,.536.536h1.072A.516.516,0,0,0,15,18.75Zm0-4.286V13.393a.516.516,0,0,0-.536-.536H13.393a.516.516,0,0,0-.536.536v1.072a.516.516,0,0,0,.536.536h1.072A.516.516,0,0,0,15,14.464Zm0-4.286V9.107a.516.516,0,0,0-.536-.536H13.393a.516.516,0,0,0-.536.536v1.072a.516.516,0,0,0,.536.536h1.072A.516.516,0,0,0,15,10.178Zm0-4.286V4.821a.516.516,0,0,0-.536-.536H13.393a.516.516,0,0,0-.536.536V5.893a.516.516,0,0,0,.536.536h1.072A.516.516,0,0,0,15,5.893Zm4.286,17.143V21.963a.516.516,0,0,0-.536-.536H17.679a.516.516,0,0,0-.536.536v1.072a.516.516,0,0,0,.536.536h1.072a.516.516,0,0,0,.536-.536Zm0-4.286V17.678a.516.516,0,0,0-.536-.536H17.679a.516.516,0,0,0-.536.536v1.072a.516.516,0,0,0,.536.536h1.072a.516.516,0,0,0,.536-.536Zm0-4.286V13.392a.516.516,0,0,0-.536-.536H17.679a.516.516,0,0,0-.536.536v1.072a.516.516,0,0,0,.536.536h1.072a.516.516,0,0,0,.536-.536Zm0-4.286V9.106a.516.516,0,0,0-.536-.536H17.679a.516.516,0,0,0-.536.536v1.072a.516.516,0,0,0,.536.536h1.072a.516.516,0,0,0,.536-.536Zm0-4.286V4.82a.516.516,0,0,0-.536-.536H17.679a.516.516,0,0,0-.536.536V5.892a.516.516,0,0,0,.536.536h1.072a.516.516,0,0,0,.536-.536Z" fill="#fffefe"/>
</svg>
