<svg xmlns="http://www.w3.org/2000/svg" width="26" height="26" viewBox="0 0 26 26">
  <g id="phone" transform="translate(-3 -3)">
    <path id="Path_9" data-name="Path 9" d="M31,16A13,13,0,0,0,18,3l0,2.6A10.4,10.4,0,0,1,28.4,16Z" transform="translate(-2)"/>
    <path id="Path_10" data-name="Path 10" d="M3,13.8V7.3A1.3,1.3,0,0,1,4.3,6h6.5a1.3,1.3,0,0,1,1.3,1.3v5.2a1.3,1.3,0,0,1-1.3,1.3H8.2A10.4,10.4,0,0,0,18.6,24.2V21.6a1.3,1.3,0,0,1,1.3-1.3h5.2a1.3,1.3,0,0,1,1.3,1.3v6.5a1.3,1.3,0,0,1-1.3,1.3H18.6A15.6,15.6,0,0,1,3,13.8Z" transform="translate(0 -0.4)"/>
    <path id="Path_11" data-name="Path 11" d="M25.205,13.815A7.788,7.788,0,0,1,25.8,16.8h-2.34A5.458,5.458,0,0,0,18,11.34V9a7.8,7.8,0,0,1,7.206,4.815Z" transform="translate(-2 -0.8)"/>
  </g>
</svg>
