<svg xmlns="http://www.w3.org/2000/svg" width="21" height="20.999" viewBox="0 0 21 20.999">
  <g id="bx-phone-call" transform="translate(-3 -3)">
    <path id="Path_91" data-name="Path 91" d="M19.215,23.433l2.106-2.1-2.715-2.715L17.249,19.97a1.04,1.04,0,0,1-.958.285,10.662,10.662,0,0,1-4.727-2.384,10.662,10.662,0,0,1-2.384-4.727,1.049,1.049,0,0,1,.285-.958l1.357-1.357L8.106,8.113,6,10.218a13.9,13.9,0,0,0,3.9,9.318,13.9,13.9,0,0,0,9.316,3.9Z" transform="translate(-0.9 -1.534)" fill="none"/>
    <path id="Path_92" data-name="Path 92" d="M18.295,24h.029a2.074,2.074,0,0,0,1.475-.615l2.848-2.848a1.049,1.049,0,0,0,0-1.485l-4.2-4.2a1.049,1.049,0,0,0-1.485,0l-1.674,1.674a7.861,7.861,0,0,1-3.142-1.674,7.866,7.866,0,0,1-1.674-3.142l1.674-1.674a1.049,1.049,0,0,0,0-1.485l-4.2-4.2a1.082,1.082,0,0,0-1.485,0L3.615,7.2A2.1,2.1,0,0,0,3,8.705,16.071,16.071,0,0,0,7.513,19.487,16.063,16.063,0,0,0,18.295,24ZM7.206,6.578,9.921,9.294,8.564,10.651a1.046,1.046,0,0,0-.285.958,10.662,10.662,0,0,0,2.384,4.727A10.662,10.662,0,0,0,15.39,18.72a1.044,1.044,0,0,0,.958-.285l1.357-1.357,2.715,2.715-2.106,2.1A13.9,13.9,0,0,1,9,18,13.9,13.9,0,0,1,5.1,8.684l2.1-2.1ZM21.9,12.449H24A9.247,9.247,0,0,0,14.539,3V5.1A7.113,7.113,0,0,1,21.9,12.449Z" transform="translate(0 0)" fill="#404040"/>
    <path id="Path_93" data-name="Path 93" d="M19.5,11.1c2.209,0,3.15.942,3.15,3.15h2.1c0-3.387-1.863-5.25-5.25-5.25Z" transform="translate(-4.949 -1.8)" fill="#404040"/>
  </g>
</svg>
