<svg xmlns="http://www.w3.org/2000/svg" width="25.217" height="21.541" viewBox="0 0 25.217 21.541">
  <g id="mail-open-outline" transform="translate(-2.25 -4.685)">
    <path id="Path_95" data-name="Path 95" d="M25.1,10.725l-9.646-4.76a1.357,1.357,0,0,0-1.2,0l-9.645,4.76A2.209,2.209,0,0,0,3.375,12.7V22.892A2.223,2.223,0,0,0,5.612,25.1H24.105a2.222,2.222,0,0,0,2.237-2.209V12.7A2.209,2.209,0,0,0,25.1,10.725Z" transform="translate(0 0)" fill="none" stroke="#404040" stroke-linecap="round" stroke-linejoin="round" stroke-width="2.25"/>
    <path id="Path_96" data-name="Path 96" d="M23.586,24.28l-7.135-5.55a1.325,1.325,0,0,0-1.627,0L7.687,24.28" transform="translate(-0.927 -2.713)" fill="none" stroke="#404040" stroke-linecap="round" stroke-linejoin="round" stroke-width="2.25"/>
    <path id="Path_97" data-name="Path 97" d="M21.75,19.186,29.258,13.5" transform="translate(-3.948 -1.649)" fill="none" stroke="#404040" stroke-linecap="round" stroke-linejoin="round" stroke-width="2.25"/>
    <path id="Path_98" data-name="Path 98" d="M4.312,13.5l7.673,5.8" transform="translate(-0.201 -1.649)" fill="none" stroke="#404040" stroke-linecap="round" stroke-linejoin="round" stroke-width="2.25"/>
  </g>
</svg>
