<svg id="Component_1_1" data-name="Component 1 – 1" xmlns="http://www.w3.org/2000/svg" width="87" height="60" viewBox="0 0 87 60">
  <path id="refresh" d="M35.99,8.334A.667.667,0,0,0,34.937,7.8L32.32,9.673l-.205.148a15.569,15.569,0,1,0,1.957,19.746.779.779,0,0,0-.211-1.081l-3.9-2.708A.837.837,0,0,0,28.8,26a9.244,9.244,0,1,1-1.964-12.4l-.44.317-2.619,1.876a.667.667,0,0,0,.175,1.169L35.156,20.78a.658.658,0,0,0,.6-.089.667.667,0,0,0,.276-.542L35.993,8.334Z" transform="translate(26.966 -5.246)" fill="#4c8ef5"/>
  <text id="reCAPTCHA" transform="translate(0 56)" fill="#747272" font-size="16" font-family="Roboto-Regular, Roboto"><tspan x="0" y="0">reCAPTCHA</tspan></text>
</svg>
