<svg xmlns="http://www.w3.org/2000/svg" width="28.001" height="28.001" viewBox="0 0 28.001 28.001">
  <path id="sale" d="M24.5,14,28,17.5l-4.375,1.75L24.5,24.5l-5.25-.875L17.5,28,14,24.5,10.5,28,8.75,23.626,3.5,24.5l.875-5.25L0,17.5,3.5,14,0,10.5,4.375,8.75,3.5,3.5l5.25.875L10.5,0,14,3.5,17.5,0l1.75,4.375L24.5,3.5l-.875,5.25L28,10.5ZM9.625,7a2.263,2.263,0,0,0-1.86,1.025A4.013,4.013,0,0,0,7,10.5a4.026,4.026,0,0,0,.765,2.475,2.2,2.2,0,0,0,3.719,0A4.026,4.026,0,0,0,12.25,10.5a4.013,4.013,0,0,0-.765-2.475A2.263,2.263,0,0,0,9.625,7Zm8.75,0H17.5a.513.513,0,0,0-.205.041q-.1.041-.15.068a.56.56,0,0,0-.15.15q-.1.123-.123.164t-.123.219q-.1.177-.123.233L8.887,20.126a.452.452,0,0,0,.082.6A.9.9,0,0,0,9.625,21H10.5a.919.919,0,0,0,.178-.014.435.435,0,0,0,.15-.068.83.83,0,0,0,.123-.1.931.931,0,0,0,.11-.15q.068-.109.1-.164t.11-.191q.082-.136.11-.191l7.738-12.25a.452.452,0,0,0-.082-.6A.9.9,0,0,0,18.376,7Zm0,7a2.263,2.263,0,0,0-1.86,1.025,4.013,4.013,0,0,0-.765,2.475,4.026,4.026,0,0,0,.765,2.475,2.2,2.2,0,0,0,3.719,0A4.026,4.026,0,0,0,21,17.5a4.013,4.013,0,0,0-.765-2.475A2.263,2.263,0,0,0,18.376,14Zm0,5.25q-.355,0-.615-.52a2.756,2.756,0,0,1-.26-1.244,2.667,2.667,0,0,1,.26-1.23q.26-.506.615-.506t.615.506a2.667,2.667,0,0,1,.26,1.23,2.756,2.756,0,0,1-.26,1.244Q18.731,19.251,18.376,19.251Zm-8.75-7q-.355,0-.615-.52a2.756,2.756,0,0,1-.26-1.244,2.667,2.667,0,0,1,.26-1.23q.26-.506.615-.506t.615.506a2.667,2.667,0,0,1,.26,1.23,2.756,2.756,0,0,1-.26,1.244Q9.981,12.25,9.625,12.25Z" fill="#fffefe"/>
</svg>
